<svg xmlns="http://www.w3.org/2000/svg" viewBox="0 0 672 368" role="img">
      
    <style>
      @keyframes grow { to { width: var(--w); } }
      svg { font-family: ui-sans-serif, system-ui, -apple-system, "Segoe UI", Roboto, "Noto Sans KR", "Apple SD Gothic Neo", "Malgun Gothic", sans-serif; background:#fff; }
      .title { font-weight:700; font-size:18px; fill:#0f172a; }
      .name { font-size:14px; fill:#334155; font-weight:600; }
      .track { fill:#f1f5f9; }
      .bar {
        fill:#38bdf8; animation: grow 0.9s cubic-bezier(.2,.7,.2,1) forwards;
      }
      .pct  { font-size:12px; fill:#0f172a; text-anchor:end; font-weight:700; }
      .nd   { font-size:12px; fill:#0f172a; }
    </style>
    
      <text class="title" x="16" y="28">전체 리더보드 (누적)</text>
      
          <g transform="translate(0,56)">
            <text class="name" x="16" y="28.0">nOOne-is-hier</text>
            <g transform="translate(180,0)">
              <rect class="track" width="460" height="44" rx="10" ry="10"/>
              <rect class="bar" style="--w:72%; animation-delay:0.00s" width="0" height="44" rx="10" ry="10">
                <title>nOOne-is-hier · 72% (113/158)</title>
              </rect>
              <text class="pct" x="448" y="28.0">72%</text>
              <text class="nd" x="12" y="28.0">113/158</text>
            </g>
          </g>
        
          <g transform="translate(0,108)">
            <text class="name" x="16" y="28.0">SDGeo12</text>
            <g transform="translate(180,0)">
              <rect class="track" width="460" height="44" rx="10" ry="10"/>
              <rect class="bar" style="--w:39%; animation-delay:0.06s" width="0" height="44" rx="10" ry="10">
                <title>SDGeo12 · 39% (61/158)</title>
              </rect>
              <text class="pct" x="448" y="28.0">39%</text>
              <text class="nd" x="12" y="28.0">61/158</text>
            </g>
          </g>
        
          <g transform="translate(0,160)">
            <text class="name" x="16" y="28.0">seo-youngjae</text>
            <g transform="translate(180,0)">
              <rect class="track" width="460" height="44" rx="10" ry="10"/>
              <rect class="bar" style="--w:38%; animation-delay:0.12s" width="0" height="44" rx="10" ry="10">
                <title>seo-youngjae · 38% (60/158)</title>
              </rect>
              <text class="pct" x="448" y="28.0">38%</text>
              <text class="nd" x="12" y="28.0">60/158</text>
            </g>
          </g>
        
          <g transform="translate(0,212)">
            <text class="name" x="16" y="28.0">skala-changhyun</text>
            <g transform="translate(180,0)">
              <rect class="track" width="460" height="44" rx="10" ry="10"/>
              <rect class="bar" style="--w:32%; animation-delay:0.18s" width="0" height="44" rx="10" ry="10">
                <title>skala-changhyun · 32% (50/158)</title>
              </rect>
              <text class="pct" x="448" y="28.0">32%</text>
              <text class="nd" x="12" y="28.0">50/158</text>
            </g>
          </g>
        
          <g transform="translate(0,264)">
            <text class="name" x="16" y="28.0">JinYeopKang</text>
            <g transform="translate(180,0)">
              <rect class="track" width="460" height="44" rx="10" ry="10"/>
              <rect class="bar" style="--w:17%; animation-delay:0.24s" width="0" height="44" rx="10" ry="10">
                <title>JinYeopKang · 17% (27/158)</title>
              </rect>
              <text class="pct" x="448" y="28.0">17%</text>
              <text class="nd" x="12" y="28.0">27/158</text>
            </g>
          </g>
        
          <g transform="translate(0,316)">
            <text class="name" x="16" y="28.0">jiyunee02</text>
            <g transform="translate(180,0)">
              <rect class="track" width="460" height="44" rx="10" ry="10"/>
              <rect class="bar" style="--w:16%; animation-delay:0.30s" width="0" height="44" rx="10" ry="10">
                <title>jiyunee02 · 16% (26/158)</title>
              </rect>
              <text class="pct" x="448" y="28.0">16%</text>
              <text class="nd" x="12" y="28.0">26/158</text>
            </g>
          </g>
        
    </svg>