<svg xmlns="http://www.w3.org/2000/svg" viewBox="0 0 824 362" role="img">
      
    
    <style>
      svg {
        font-family: ui-sans-serif, system-ui, -apple-system, "Segoe UI", Roboto, "Noto Sans KR", "Apple SD Gothic Neo", "Malgun Gothic", sans-serif;
        background: none; /* transparent */
        /* Light (default) */
        --fg-strong:   #0f172a;
        --fg-muted:    #334155;
        --fg-muted-2:  #475569;
        --axis:        #64748b;
        --stroke:      #e2e8f0;
        --panel-fill:  #ffffff;
        --panel-stk:   #e2e8f0;
        --track:       #f1f5f9;
        --bar:         #38bdf8;
        --line:        #06b6d4;
        --dot:         #06b6d4;
        --badge-fill:  #f1f5f9;
        --badge-stk:   #e2e8f0;
        --avg-fill:    #0ea5e9;
        --avg-stk:     #bae6fd;
        --pct-color:   #0f172a;
      }
      @media (prefers-color-scheme: dark) {
        svg {
          --fg-strong:   #e5e7eb;
          --fg-muted:    #cbd5e1;
          --fg-muted-2:  #94a3b8;
          --axis:        #94a3b8;
          --stroke:      #334155;
          --panel-fill:  #0b1220;
          --panel-stk:   #334155;
          --track:       #1f2937;
          --bar:         #38bdf8;
          --line:        #22d3ee;
          --dot:         #22d3ee;
          --badge-fill:  #111827;
          --badge-stk:   #334155;
          --avg-fill:    #38bdf8;
          --avg-stk:     #075985;
          --pct-color:   #e5e7eb;
        }
      }
      @keyframes pop { 0%{opacity:0; transform:scale(0.96)} 100%{opacity:1; transform:scale(1)} }
      @keyframes grow-w { from { transform:scaleX(0) } to { transform:scaleX(var(--sx)) } }
      @keyframes draw {
        from { stroke-dasharray:1000; stroke-dashoffset:1000; }
        to   { stroke-dasharray:1000; stroke-dashoffset:0; }
      }
    </style>
    
    <style>
      .panel { fill: var(--panel-fill); stroke: var(--panel-stk); }
      .name  { font-size:13px; font-weight:800; fill: var(--fg-strong); letter-spacing:.1px; }
      .grid line { stroke: var(--stroke); stroke-width:1; }
      .line { fill:none; stroke: var(--line); stroke-width:2.2; animation: draw 1.1s ease forwards; }
      .dot { fill: var(--dot); }
      .lastlabel rect { fill: var(--badge-fill); stroke: var(--badge-stk); }
      .lastlabel text { font-size:12px; fill: var(--fg-strong); font-weight:800; }

      .xt { font-size:10px; fill: var(--axis); }

      /* Hover 툴팁 (점마다) */
      .pt { cursor: default; }
      .pt .tip { visibility:hidden; opacity:0; transition:.12s; pointer-events:none; }
      .pt:hover .tip, .pt:focus .tip { visibility:visible; opacity:1; }
      .pt .tip rect { fill: var(--badge-fill); stroke: var(--badge-stk); }
      .pt .tip text { font-size:12px; fill: var(--fg-strong); font-weight:700; }
    </style>
    
      
          <g class="card" transform="translate(0,8)">
            <rect class="panel" x="0" y="0" width="260" height="170" rx="16" ry="16"/>
            <text class="name" x="24" y="18">nOOne-is-hier</text>
            
          <g class="grid">
            <line x1="24" y1="24" x2="236" y2="24" />
            <line x1="24" y1="146" x2="236" y2="146" />
          </g>
        
            <path class="line" d="M24.0,24.0 L94.7,69.1 L165.3,33.8 L236.0,58.2" pathLength="1000" style="animation-delay:0.00s">
              <title>nOOne-is-hier · 4주 추세</title>
            </path>
            
              <g class="pt" transform="translate(24.0,24.0)" tabindex="0">
                <circle r="3" class="dot"/>
                <g class="tip" transform="translate(0,-14)">
                  <rect x="-18" y="-12" width="36" height="20" rx="6" ry="6"/>
                  <text x="0" y="2" text-anchor="middle">100%</text>
                </g>
              </g>
            
              <g class="pt" transform="translate(94.7,69.1)" tabindex="0">
                <circle r="3" class="dot"/>
                <g class="tip" transform="translate(0,-14)">
                  <rect x="-18" y="-12" width="36" height="20" rx="6" ry="6"/>
                  <text x="0" y="2" text-anchor="middle">63%</text>
                </g>
              </g>
            
              <g class="pt" transform="translate(165.3,33.8)" tabindex="0">
                <circle r="3" class="dot"/>
                <g class="tip" transform="translate(0,-14)">
                  <rect x="-18" y="-12" width="36" height="20" rx="6" ry="6"/>
                  <text x="0" y="2" text-anchor="middle">92%</text>
                </g>
              </g>
            
              <g class="pt" transform="translate(236.0,58.2)" tabindex="0">
                <circle r="3" class="dot"/>
                <g class="tip" transform="translate(0,-14)">
                  <rect x="-18" y="-12" width="36" height="20" rx="6" ry="6"/>
                  <text x="0" y="2" text-anchor="middle">72%</text>
                </g>
              </g>
            
            
          <g class="lastlabel" transform="translate(242.0,48.2)">
            <rect x="-4" y="-12" width="40" height="20" rx="6" ry="6"/>
            <text x="16" y="2" text-anchor="middle">72%</text>
          </g>
        
            <text class="xt" x="24.0" y="164" text-anchor="middle">01</text><text class="xt" x="94.66666666666667" y="164" text-anchor="middle">02</text><text class="xt" x="165.33333333333334" y="164" text-anchor="middle">03</text><text class="xt" x="236.0" y="164" text-anchor="middle">04</text>
          </g>
        
          <g class="card" transform="translate(274,8)">
            <rect class="panel" x="0" y="0" width="260" height="170" rx="16" ry="16"/>
            <text class="name" x="24" y="18">SDGeo12</text>
            
          <g class="grid">
            <line x1="24" y1="24" x2="236" y2="24" />
            <line x1="24" y1="146" x2="236" y2="146" />
          </g>
        
            <path class="line" d="M24.0,59.4 L94.7,100.9 L165.3,83.8 L236.0,98.4" pathLength="1000" style="animation-delay:0.12s">
              <title>SDGeo12 · 4주 추세</title>
            </path>
            
              <g class="pt" transform="translate(24.0,59.4)" tabindex="0">
                <circle r="3" class="dot"/>
                <g class="tip" transform="translate(0,-14)">
                  <rect x="-18" y="-12" width="36" height="20" rx="6" ry="6"/>
                  <text x="0" y="2" text-anchor="middle">71%</text>
                </g>
              </g>
            
              <g class="pt" transform="translate(94.7,100.9)" tabindex="0">
                <circle r="3" class="dot"/>
                <g class="tip" transform="translate(0,-14)">
                  <rect x="-18" y="-12" width="36" height="20" rx="6" ry="6"/>
                  <text x="0" y="2" text-anchor="middle">37%</text>
                </g>
              </g>
            
              <g class="pt" transform="translate(165.3,83.8)" tabindex="0">
                <circle r="3" class="dot"/>
                <g class="tip" transform="translate(0,-14)">
                  <rect x="-18" y="-12" width="36" height="20" rx="6" ry="6"/>
                  <text x="0" y="2" text-anchor="middle">51%</text>
                </g>
              </g>
            
              <g class="pt" transform="translate(236.0,98.4)" tabindex="0">
                <circle r="3" class="dot"/>
                <g class="tip" transform="translate(0,-14)">
                  <rect x="-18" y="-12" width="36" height="20" rx="6" ry="6"/>
                  <text x="0" y="2" text-anchor="middle">39%</text>
                </g>
              </g>
            
            
          <g class="lastlabel" transform="translate(242.0,88.4)">
            <rect x="-4" y="-12" width="40" height="20" rx="6" ry="6"/>
            <text x="16" y="2" text-anchor="middle">39%</text>
          </g>
        
            <text class="xt" x="24.0" y="164" text-anchor="middle">01</text><text class="xt" x="94.66666666666667" y="164" text-anchor="middle">02</text><text class="xt" x="165.33333333333334" y="164" text-anchor="middle">03</text><text class="xt" x="236.0" y="164" text-anchor="middle">04</text>
          </g>
        
          <g class="card" transform="translate(548,8)">
            <rect class="panel" x="0" y="0" width="260" height="170" rx="16" ry="16"/>
            <text class="name" x="24" y="18">jiyunee02</text>
            
          <g class="grid">
            <line x1="24" y1="24" x2="236" y2="24" />
            <line x1="24" y1="146" x2="236" y2="146" />
          </g>
        
            <path class="line" d="M24.0,124.0 L94.7,132.6 L165.3,119.2 L236.0,126.5" pathLength="1000" style="animation-delay:0.24s">
              <title>jiyunee02 · 4주 추세</title>
            </path>
            
              <g class="pt" transform="translate(24.0,124.0)" tabindex="0">
                <circle r="3" class="dot"/>
                <g class="tip" transform="translate(0,-14)">
                  <rect x="-18" y="-12" width="36" height="20" rx="6" ry="6"/>
                  <text x="0" y="2" text-anchor="middle">18%</text>
                </g>
              </g>
            
              <g class="pt" transform="translate(94.7,132.6)" tabindex="0">
                <circle r="3" class="dot"/>
                <g class="tip" transform="translate(0,-14)">
                  <rect x="-18" y="-12" width="36" height="20" rx="6" ry="6"/>
                  <text x="0" y="2" text-anchor="middle">11%</text>
                </g>
              </g>
            
              <g class="pt" transform="translate(165.3,119.2)" tabindex="0">
                <circle r="3" class="dot"/>
                <g class="tip" transform="translate(0,-14)">
                  <rect x="-18" y="-12" width="36" height="20" rx="6" ry="6"/>
                  <text x="0" y="2" text-anchor="middle">22%</text>
                </g>
              </g>
            
              <g class="pt" transform="translate(236.0,126.5)" tabindex="0">
                <circle r="3" class="dot"/>
                <g class="tip" transform="translate(0,-14)">
                  <rect x="-18" y="-12" width="36" height="20" rx="6" ry="6"/>
                  <text x="0" y="2" text-anchor="middle">16%</text>
                </g>
              </g>
            
            
          <g class="lastlabel" transform="translate(242.0,116.5)">
            <rect x="-4" y="-12" width="40" height="20" rx="6" ry="6"/>
            <text x="16" y="2" text-anchor="middle">16%</text>
          </g>
        
            <text class="xt" x="24.0" y="164" text-anchor="middle">01</text><text class="xt" x="94.66666666666667" y="164" text-anchor="middle">02</text><text class="xt" x="165.33333333333334" y="164" text-anchor="middle">03</text><text class="xt" x="236.0" y="164" text-anchor="middle">04</text>
          </g>
        
          <g class="card" transform="translate(0,192)">
            <rect class="panel" x="0" y="0" width="260" height="170" rx="16" ry="16"/>
            <text class="name" x="24" y="18">skala-changhyun</text>
            
          <g class="grid">
            <line x1="24" y1="24" x2="236" y2="24" />
            <line x1="24" y1="146" x2="236" y2="146" />
          </g>
        
            <path class="line" d="M24.0,96.0 L94.7,104.5 L165.3,93.5 L236.0,107.0" pathLength="1000" style="animation-delay:0.36s">
              <title>skala-changhyun · 4주 추세</title>
            </path>
            
              <g class="pt" transform="translate(24.0,96.0)" tabindex="0">
                <circle r="3" class="dot"/>
                <g class="tip" transform="translate(0,-14)">
                  <rect x="-18" y="-12" width="36" height="20" rx="6" ry="6"/>
                  <text x="0" y="2" text-anchor="middle">41%</text>
                </g>
              </g>
            
              <g class="pt" transform="translate(94.7,104.5)" tabindex="0">
                <circle r="3" class="dot"/>
                <g class="tip" transform="translate(0,-14)">
                  <rect x="-18" y="-12" width="36" height="20" rx="6" ry="6"/>
                  <text x="0" y="2" text-anchor="middle">34%</text>
                </g>
              </g>
            
              <g class="pt" transform="translate(165.3,93.5)" tabindex="0">
                <circle r="3" class="dot"/>
                <g class="tip" transform="translate(0,-14)">
                  <rect x="-18" y="-12" width="36" height="20" rx="6" ry="6"/>
                  <text x="0" y="2" text-anchor="middle">43%</text>
                </g>
              </g>
            
              <g class="pt" transform="translate(236.0,107.0)" tabindex="0">
                <circle r="3" class="dot"/>
                <g class="tip" transform="translate(0,-14)">
                  <rect x="-18" y="-12" width="36" height="20" rx="6" ry="6"/>
                  <text x="0" y="2" text-anchor="middle">32%</text>
                </g>
              </g>
            
            
          <g class="lastlabel" transform="translate(242.0,97.0)">
            <rect x="-4" y="-12" width="40" height="20" rx="6" ry="6"/>
            <text x="16" y="2" text-anchor="middle">32%</text>
          </g>
        
            <text class="xt" x="24.0" y="164" text-anchor="middle">01</text><text class="xt" x="94.66666666666667" y="164" text-anchor="middle">02</text><text class="xt" x="165.33333333333334" y="164" text-anchor="middle">03</text><text class="xt" x="236.0" y="164" text-anchor="middle">04</text>
          </g>
        
          <g class="card" transform="translate(274,192)">
            <rect class="panel" x="0" y="0" width="260" height="170" rx="16" ry="16"/>
            <text class="name" x="24" y="18">seo-youngjae</text>
            
          <g class="grid">
            <line x1="24" y1="24" x2="236" y2="24" />
            <line x1="24" y1="146" x2="236" y2="146" />
          </g>
        
            <path class="line" d="M24.0,132.6 L94.7,113.1 L165.3,82.6 L236.0,99.6" pathLength="1000" style="animation-delay:0.48s">
              <title>seo-youngjae · 4주 추세</title>
            </path>
            
              <g class="pt" transform="translate(24.0,132.6)" tabindex="0">
                <circle r="3" class="dot"/>
                <g class="tip" transform="translate(0,-14)">
                  <rect x="-18" y="-12" width="36" height="20" rx="6" ry="6"/>
                  <text x="0" y="2" text-anchor="middle">11%</text>
                </g>
              </g>
            
              <g class="pt" transform="translate(94.7,113.1)" tabindex="0">
                <circle r="3" class="dot"/>
                <g class="tip" transform="translate(0,-14)">
                  <rect x="-18" y="-12" width="36" height="20" rx="6" ry="6"/>
                  <text x="0" y="2" text-anchor="middle">27%</text>
                </g>
              </g>
            
              <g class="pt" transform="translate(165.3,82.6)" tabindex="0">
                <circle r="3" class="dot"/>
                <g class="tip" transform="translate(0,-14)">
                  <rect x="-18" y="-12" width="36" height="20" rx="6" ry="6"/>
                  <text x="0" y="2" text-anchor="middle">52%</text>
                </g>
              </g>
            
              <g class="pt" transform="translate(236.0,99.6)" tabindex="0">
                <circle r="3" class="dot"/>
                <g class="tip" transform="translate(0,-14)">
                  <rect x="-18" y="-12" width="36" height="20" rx="6" ry="6"/>
                  <text x="0" y="2" text-anchor="middle">38%</text>
                </g>
              </g>
            
            
          <g class="lastlabel" transform="translate(242.0,89.6)">
            <rect x="-4" y="-12" width="40" height="20" rx="6" ry="6"/>
            <text x="16" y="2" text-anchor="middle">38%</text>
          </g>
        
            <text class="xt" x="24.0" y="164" text-anchor="middle">01</text><text class="xt" x="94.66666666666667" y="164" text-anchor="middle">02</text><text class="xt" x="165.33333333333334" y="164" text-anchor="middle">03</text><text class="xt" x="236.0" y="164" text-anchor="middle">04</text>
          </g>
        
          <g class="card" transform="translate(548,192)">
            <rect class="panel" x="0" y="0" width="260" height="170" rx="16" ry="16"/>
            <text class="name" x="24" y="18">JinYeopKang</text>
            
          <g class="grid">
            <line x1="24" y1="24" x2="236" y2="24" />
            <line x1="24" y1="146" x2="236" y2="146" />
          </g>
        
            <path class="line" d="M24.0,143.6 L94.7,144.8 L165.3,132.6 L236.0,125.3" pathLength="1000" style="animation-delay:0.60s">
              <title>JinYeopKang · 4주 추세</title>
            </path>
            
              <g class="pt" transform="translate(24.0,143.6)" tabindex="0">
                <circle r="3" class="dot"/>
                <g class="tip" transform="translate(0,-14)">
                  <rect x="-18" y="-12" width="36" height="20" rx="6" ry="6"/>
                  <text x="0" y="2" text-anchor="middle">2%</text>
                </g>
              </g>
            
              <g class="pt" transform="translate(94.7,144.8)" tabindex="0">
                <circle r="3" class="dot"/>
                <g class="tip" transform="translate(0,-14)">
                  <rect x="-18" y="-12" width="36" height="20" rx="6" ry="6"/>
                  <text x="0" y="2" text-anchor="middle">1%</text>
                </g>
              </g>
            
              <g class="pt" transform="translate(165.3,132.6)" tabindex="0">
                <circle r="3" class="dot"/>
                <g class="tip" transform="translate(0,-14)">
                  <rect x="-18" y="-12" width="36" height="20" rx="6" ry="6"/>
                  <text x="0" y="2" text-anchor="middle">11%</text>
                </g>
              </g>
            
              <g class="pt" transform="translate(236.0,125.3)" tabindex="0">
                <circle r="3" class="dot"/>
                <g class="tip" transform="translate(0,-14)">
                  <rect x="-18" y="-12" width="36" height="20" rx="6" ry="6"/>
                  <text x="0" y="2" text-anchor="middle">17%</text>
                </g>
              </g>
            
            
          <g class="lastlabel" transform="translate(242.0,115.3)">
            <rect x="-4" y="-12" width="40" height="20" rx="6" ry="6"/>
            <text x="16" y="2" text-anchor="middle">17%</text>
          </g>
        
            <text class="xt" x="24.0" y="164" text-anchor="middle">01</text><text class="xt" x="94.66666666666667" y="164" text-anchor="middle">02</text><text class="xt" x="165.33333333333334" y="164" text-anchor="middle">03</text><text class="xt" x="236.0" y="164" text-anchor="middle">04</text>
          </g>
        
    </svg>