<svg xmlns="http://www.w3.org/2000/svg" viewBox="0 0 824 410" role="img">
      
    <style>
      @keyframes draw {
        from { stroke-dasharray:1000; stroke-dashoffset:1000; }
        to   { stroke-dasharray:1000; stroke-dashoffset:0; }
      }
      svg { font-family:ui-sans-serif, system-ui, -apple-system, "Segoe UI", Roboto, "Noto Sans KR", "Apple SD Gothic Neo", "Malgun Gothic", sans-serif; background:#fff; }
      .title { font-weight:700; font-size:18px; fill:#0f172a; }
      .panel { fill:#ffffff; stroke:#e2e8f0; }
      .name  { font-size:13px; font-weight:700; fill:#0f172a; }
      .grid line { stroke:#e2e8f0; stroke-width:1; }
      .line {
        fill:none; stroke:#06b6d4; stroke-width:2.2;
        animation: draw 1.1s ease forwards;
      }
      .dot { fill:#06b6d4; }
      .lastlabel rect { fill:#f1f5f9; stroke:#e2e8f0; }
      .lastlabel text { font-size:12px; fill:#0f172a; font-weight:700; }
      .xt { font-size:10px; fill:#64748b; }
    </style>
    
      <text class="title" x="16" y="28">멤버별 주차별 누적 추세 (제출 주차 귀속 / 배정 누적, %)</text>
      
          <g class="card" transform="translate(0,56)">
            <rect class="panel" x="0" y="0" width="260" height="170" rx="16" ry="16"/>
            <text class="name" x="24" y="18">nOOne-is-hier</text>
            
          <g class="grid">
            <line x1="24" y1="24" x2="236" y2="24" />
            <line x1="24" y1="146" x2="236" y2="146" />
          </g>
        
            <path class="line" d="M24.0,24.0 L94.7,69.1 L165.3,33.8 L236.0,58.2" pathLength="1000" style="animation-delay:0.00s">
              <title>nOOne-is-hier · 4주 추세</title>
            </path>
            <circle class="dot" cx="236.0" cy="58.2" r="3"/>
            <g class="lastlabel" transform="translate(242.0,48.2)">
              <rect x="-4" y="-12" width="40" height="20" rx="6" ry="6"/>
              <text x="16" y="2" text-anchor="middle">72%</text>
            </g>
            <text class="xt" x="24.0" y="164" text-anchor="middle">01</text><text class="xt" x="94.66666666666667" y="164" text-anchor="middle">02</text><text class="xt" x="165.33333333333334" y="164" text-anchor="middle">03</text><text class="xt" x="236.0" y="164" text-anchor="middle">04</text>
          </g>
        
          <g class="card" transform="translate(274,56)">
            <rect class="panel" x="0" y="0" width="260" height="170" rx="16" ry="16"/>
            <text class="name" x="24" y="18">SDGeo12</text>
            
          <g class="grid">
            <line x1="24" y1="24" x2="236" y2="24" />
            <line x1="24" y1="146" x2="236" y2="146" />
          </g>
        
            <path class="line" d="M24.0,59.4 L94.7,100.9 L165.3,83.8 L236.0,98.4" pathLength="1000" style="animation-delay:0.12s">
              <title>SDGeo12 · 4주 추세</title>
            </path>
            <circle class="dot" cx="236.0" cy="98.4" r="3"/>
            <g class="lastlabel" transform="translate(242.0,88.4)">
              <rect x="-4" y="-12" width="40" height="20" rx="6" ry="6"/>
              <text x="16" y="2" text-anchor="middle">39%</text>
            </g>
            <text class="xt" x="24.0" y="164" text-anchor="middle">01</text><text class="xt" x="94.66666666666667" y="164" text-anchor="middle">02</text><text class="xt" x="165.33333333333334" y="164" text-anchor="middle">03</text><text class="xt" x="236.0" y="164" text-anchor="middle">04</text>
          </g>
        
          <g class="card" transform="translate(548,56)">
            <rect class="panel" x="0" y="0" width="260" height="170" rx="16" ry="16"/>
            <text class="name" x="24" y="18">jiyunee02</text>
            
          <g class="grid">
            <line x1="24" y1="24" x2="236" y2="24" />
            <line x1="24" y1="146" x2="236" y2="146" />
          </g>
        
            <path class="line" d="M24.0,124.0 L94.7,132.6 L165.3,119.2 L236.0,126.5" pathLength="1000" style="animation-delay:0.24s">
              <title>jiyunee02 · 4주 추세</title>
            </path>
            <circle class="dot" cx="236.0" cy="126.5" r="3"/>
            <g class="lastlabel" transform="translate(242.0,116.5)">
              <rect x="-4" y="-12" width="40" height="20" rx="6" ry="6"/>
              <text x="16" y="2" text-anchor="middle">16%</text>
            </g>
            <text class="xt" x="24.0" y="164" text-anchor="middle">01</text><text class="xt" x="94.66666666666667" y="164" text-anchor="middle">02</text><text class="xt" x="165.33333333333334" y="164" text-anchor="middle">03</text><text class="xt" x="236.0" y="164" text-anchor="middle">04</text>
          </g>
        
          <g class="card" transform="translate(0,240)">
            <rect class="panel" x="0" y="0" width="260" height="170" rx="16" ry="16"/>
            <text class="name" x="24" y="18">skala-changhyun</text>
            
          <g class="grid">
            <line x1="24" y1="24" x2="236" y2="24" />
            <line x1="24" y1="146" x2="236" y2="146" />
          </g>
        
            <path class="line" d="M24.0,96.0 L94.7,104.5 L165.3,93.5 L236.0,107.0" pathLength="1000" style="animation-delay:0.36s">
              <title>skala-changhyun · 4주 추세</title>
            </path>
            <circle class="dot" cx="236.0" cy="107.0" r="3"/>
            <g class="lastlabel" transform="translate(242.0,97.0)">
              <rect x="-4" y="-12" width="40" height="20" rx="6" ry="6"/>
              <text x="16" y="2" text-anchor="middle">32%</text>
            </g>
            <text class="xt" x="24.0" y="164" text-anchor="middle">01</text><text class="xt" x="94.66666666666667" y="164" text-anchor="middle">02</text><text class="xt" x="165.33333333333334" y="164" text-anchor="middle">03</text><text class="xt" x="236.0" y="164" text-anchor="middle">04</text>
          </g>
        
          <g class="card" transform="translate(274,240)">
            <rect class="panel" x="0" y="0" width="260" height="170" rx="16" ry="16"/>
            <text class="name" x="24" y="18">seo-youngjae</text>
            
          <g class="grid">
            <line x1="24" y1="24" x2="236" y2="24" />
            <line x1="24" y1="146" x2="236" y2="146" />
          </g>
        
            <path class="line" d="M24.0,132.6 L94.7,113.1 L165.3,82.6 L236.0,99.6" pathLength="1000" style="animation-delay:0.48s">
              <title>seo-youngjae · 4주 추세</title>
            </path>
            <circle class="dot" cx="236.0" cy="99.6" r="3"/>
            <g class="lastlabel" transform="translate(242.0,89.6)">
              <rect x="-4" y="-12" width="40" height="20" rx="6" ry="6"/>
              <text x="16" y="2" text-anchor="middle">38%</text>
            </g>
            <text class="xt" x="24.0" y="164" text-anchor="middle">01</text><text class="xt" x="94.66666666666667" y="164" text-anchor="middle">02</text><text class="xt" x="165.33333333333334" y="164" text-anchor="middle">03</text><text class="xt" x="236.0" y="164" text-anchor="middle">04</text>
          </g>
        
          <g class="card" transform="translate(548,240)">
            <rect class="panel" x="0" y="0" width="260" height="170" rx="16" ry="16"/>
            <text class="name" x="24" y="18">JinYeopKang</text>
            
          <g class="grid">
            <line x1="24" y1="24" x2="236" y2="24" />
            <line x1="24" y1="146" x2="236" y2="146" />
          </g>
        
            <path class="line" d="M24.0,143.6 L94.7,144.8 L165.3,132.6 L236.0,125.3" pathLength="1000" style="animation-delay:0.60s">
              <title>JinYeopKang · 4주 추세</title>
            </path>
            <circle class="dot" cx="236.0" cy="125.3" r="3"/>
            <g class="lastlabel" transform="translate(242.0,115.3)">
              <rect x="-4" y="-12" width="40" height="20" rx="6" ry="6"/>
              <text x="16" y="2" text-anchor="middle">17%</text>
            </g>
            <text class="xt" x="24.0" y="164" text-anchor="middle">01</text><text class="xt" x="94.66666666666667" y="164" text-anchor="middle">02</text><text class="xt" x="165.33333333333334" y="164" text-anchor="middle">03</text><text class="xt" x="236.0" y="164" text-anchor="middle">04</text>
          </g>
        
    </svg>